<mxfile modified="2020-11-24T15:44:15.036Z" host="app.diagrams.net" agent="5.0 (Macintosh; Intel Mac OS X 10_13_6) AppleWebKit/537.36 (KHTML, like Gecko) Chrome/83.0.4103.116 Safari/537.36" etag="IYV7RBV7iRI5ntLKqFm5" version="13.5.8" type="github">
  <diagram id="Ht1M8jgEwFfnCIfOTk4-" name="Page-1">
    <mxGraphModel dx="1186" dy="614" grid="1" gridSize="10" guides="1" tooltips="1" connect="1" arrows="1" fold="1" page="1" pageScale="1" pageWidth="1169" pageHeight="827" math="0" shadow="0">
      <root>
        <mxCell id="0" />
        <mxCell id="1" parent="0" />
        <mxCell id="-QjtrjUzRDEMRZ5MF8oH-48" value="&lt;p class=&quot;MuiTypography-root jss18 jss109 jss11  MuiTypography-body1&quot; style=&quot;box-sizing: border-box ; margin: 0px ; font-family: &amp;#34;nunito sans&amp;#34; , &amp;#34;verdana&amp;#34; , &amp;#34;helvetica&amp;#34; , sans-serif ; line-height: 1.5 ; letter-spacing: 0.15px&quot;&gt;Detailed component design for Pastebin&lt;/p&gt;&lt;div&gt;&lt;br style=&quot;font-family: &amp;#34;nunito sans&amp;#34; , sans-serif , , , &amp;#34;segoe ui&amp;#34; , &amp;#34;oxygen&amp;#34; , &amp;#34;ubuntu&amp;#34; , &amp;#34;cantarell&amp;#34; , &amp;#34;helvetica neue&amp;#34; ; font-size: 14px ; text-align: center ; background-color: rgb(245 , 245 , 245)&quot;&gt;&lt;/div&gt;" style="text;html=1;resizable=0;points=[];autosize=1;align=left;verticalAlign=top;spacingTop=-4;fontSize=16;" parent="1" vertex="1">
          <mxGeometry x="70" y="104.5" width="340" height="40" as="geometry" />
        </mxCell>
        <mxCell id="SCVMTBWpLvtzJIhz15lM-1" value="" style="line;strokeWidth=2;html=1;fontSize=14;" parent="1" vertex="1">
          <mxGeometry x="52.5" y="139.5" width="1060" height="10" as="geometry" />
        </mxCell>
        <mxCell id="moitEkJ8zeqbk6gh0u7G-1" value="" style="ellipse;shape=cloud;whiteSpace=wrap;html=1;" vertex="1" parent="1">
          <mxGeometry x="70" y="260" width="120" height="80" as="geometry" />
        </mxCell>
        <mxCell id="moitEkJ8zeqbk6gh0u7G-2" value="Client" style="text;html=1;align=center;verticalAlign=middle;resizable=0;points=[];autosize=1;" vertex="1" parent="1">
          <mxGeometry x="95" y="270" width="50" height="20" as="geometry" />
        </mxCell>
        <mxCell id="moitEkJ8zeqbk6gh0u7G-4" value="" style="outlineConnect=0;fontColor=#232F3E;gradientColor=none;fillColor=#232F3E;strokeColor=none;dashed=0;verticalLabelPosition=bottom;verticalAlign=top;align=center;html=1;fontSize=12;fontStyle=0;aspect=fixed;pointerEvents=1;shape=mxgraph.aws4.traditional_server;" vertex="1" parent="1">
          <mxGeometry x="600" y="253" width="45" height="78" as="geometry" />
        </mxCell>
        <mxCell id="moitEkJ8zeqbk6gh0u7G-5" value="" style="outlineConnect=0;fontColor=#232F3E;gradientColor=none;fillColor=#232F3E;strokeColor=none;dashed=0;verticalLabelPosition=bottom;verticalAlign=top;align=center;html=1;fontSize=12;fontStyle=0;aspect=fixed;pointerEvents=1;shape=mxgraph.aws4.traditional_server;" vertex="1" parent="1">
          <mxGeometry x="630" y="312" width="45" height="78" as="geometry" />
        </mxCell>
        <mxCell id="moitEkJ8zeqbk6gh0u7G-6" value="" style="outlineConnect=0;fontColor=#232F3E;gradientColor=none;fillColor=#232F3E;strokeColor=none;dashed=0;verticalLabelPosition=bottom;verticalAlign=top;align=center;html=1;fontSize=12;fontStyle=0;aspect=fixed;pointerEvents=1;shape=mxgraph.aws4.traditional_server;" vertex="1" parent="1">
          <mxGeometry x="570" y="312" width="45" height="78" as="geometry" />
        </mxCell>
        <mxCell id="moitEkJ8zeqbk6gh0u7G-7" value="" style="gradientDirection=north;outlineConnect=0;fontColor=#232F3E;gradientColor=#505863;fillColor=#1E262E;strokeColor=#ffffff;dashed=0;verticalLabelPosition=bottom;verticalAlign=top;align=center;html=1;fontSize=12;fontStyle=0;aspect=fixed;shape=mxgraph.aws4.resourceIcon;resIcon=mxgraph.aws4.general;" vertex="1" parent="1">
          <mxGeometry x="340" y="274" width="48" height="48" as="geometry" />
        </mxCell>
        <mxCell id="moitEkJ8zeqbk6gh0u7G-8" value="" style="gradientDirection=north;outlineConnect=0;fontColor=#232F3E;gradientColor=#505863;fillColor=#1E262E;strokeColor=#ffffff;dashed=0;verticalLabelPosition=bottom;verticalAlign=top;align=center;html=1;fontSize=12;fontStyle=0;aspect=fixed;shape=mxgraph.aws4.resourceIcon;resIcon=mxgraph.aws4.general;" vertex="1" parent="1">
          <mxGeometry x="368" y="302" width="40" height="40" as="geometry" />
        </mxCell>
        <mxCell id="moitEkJ8zeqbk6gh0u7G-9" value="" style="gradientDirection=north;outlineConnect=0;fontColor=#232F3E;gradientColor=#505863;fillColor=#1E262E;strokeColor=#ffffff;dashed=0;verticalLabelPosition=bottom;verticalAlign=top;align=center;html=1;fontSize=12;fontStyle=0;aspect=fixed;shape=mxgraph.aws4.resourceIcon;resIcon=mxgraph.aws4.general;" vertex="1" parent="1">
          <mxGeometry x="330" y="312" width="38" height="38" as="geometry" />
        </mxCell>
        <mxCell id="moitEkJ8zeqbk6gh0u7G-10" value="" style="gradientDirection=north;outlineConnect=0;fontColor=#232F3E;gradientColor=#505863;fillColor=#1E262E;strokeColor=#ffffff;dashed=0;verticalLabelPosition=bottom;verticalAlign=top;align=center;html=1;fontSize=12;fontStyle=0;aspect=fixed;shape=mxgraph.aws4.resourceIcon;resIcon=mxgraph.aws4.general;" vertex="1" parent="1">
          <mxGeometry x="789" y="264" width="48" height="46" as="geometry" />
        </mxCell>
        <mxCell id="moitEkJ8zeqbk6gh0u7G-11" value="" style="gradientDirection=north;outlineConnect=0;fontColor=#232F3E;gradientColor=#505863;fillColor=#1E262E;strokeColor=#ffffff;dashed=0;verticalLabelPosition=bottom;verticalAlign=top;align=center;html=1;fontSize=12;fontStyle=0;aspect=fixed;shape=mxgraph.aws4.resourceIcon;resIcon=mxgraph.aws4.general;" vertex="1" parent="1">
          <mxGeometry x="817" y="302" width="40" height="38" as="geometry" />
        </mxCell>
        <mxCell id="moitEkJ8zeqbk6gh0u7G-12" value="" style="gradientDirection=north;outlineConnect=0;fontColor=#232F3E;gradientColor=#505863;fillColor=#1E262E;strokeColor=#ffffff;dashed=0;verticalLabelPosition=bottom;verticalAlign=top;align=center;html=1;fontSize=12;fontStyle=0;aspect=fixed;shape=mxgraph.aws4.resourceIcon;resIcon=mxgraph.aws4.general;" vertex="1" parent="1">
          <mxGeometry x="779" y="312" width="38" height="36" as="geometry" />
        </mxCell>
        <mxCell id="moitEkJ8zeqbk6gh0u7G-13" value="" style="outlineConnect=0;fontColor=#232F3E;gradientColor=none;fillColor=#232F3E;strokeColor=none;dashed=0;verticalLabelPosition=bottom;verticalAlign=top;align=center;html=1;fontSize=12;fontStyle=0;aspect=fixed;pointerEvents=1;shape=mxgraph.aws4.generic_database;" vertex="1" parent="1">
          <mxGeometry x="970" y="500" width="59" height="78" as="geometry" />
        </mxCell>
        <mxCell id="moitEkJ8zeqbk6gh0u7G-14" value="" style="outlineConnect=0;fontColor=#232F3E;gradientColor=none;fillColor=#232F3E;strokeColor=none;dashed=0;verticalLabelPosition=bottom;verticalAlign=top;align=center;html=1;fontSize=12;fontStyle=0;aspect=fixed;pointerEvents=1;shape=mxgraph.aws4.generic_database;" vertex="1" parent="1">
          <mxGeometry x="995" y="550" width="59" height="78" as="geometry" />
        </mxCell>
        <mxCell id="moitEkJ8zeqbk6gh0u7G-15" value="" style="outlineConnect=0;fontColor=#232F3E;gradientColor=none;fillColor=#232F3E;strokeColor=none;dashed=0;verticalLabelPosition=bottom;verticalAlign=top;align=center;html=1;fontSize=12;fontStyle=0;aspect=fixed;pointerEvents=1;shape=mxgraph.aws4.generic_database;" vertex="1" parent="1">
          <mxGeometry x="1025" y="500" width="59" height="78" as="geometry" />
        </mxCell>
        <mxCell id="moitEkJ8zeqbk6gh0u7G-16" value="" style="outlineConnect=0;fontColor=#232F3E;gradientColor=none;fillColor=#277116;strokeColor=none;dashed=0;verticalLabelPosition=bottom;verticalAlign=top;align=center;html=1;fontSize=12;fontStyle=0;aspect=fixed;pointerEvents=1;shape=mxgraph.aws4.volume_gateway;" vertex="1" parent="1">
          <mxGeometry x="980" y="159" width="65" height="78" as="geometry" />
        </mxCell>
        <mxCell id="moitEkJ8zeqbk6gh0u7G-17" value="" style="shape=cylinder2;whiteSpace=wrap;html=1;boundedLbl=1;backgroundOutline=1;size=15;" vertex="1" parent="1">
          <mxGeometry x="592.5" y="510" width="60" height="80" as="geometry" />
        </mxCell>
        <mxCell id="moitEkJ8zeqbk6gh0u7G-18" value="" style="shape=cylinder2;whiteSpace=wrap;html=1;boundedLbl=1;backgroundOutline=1;size=15;" vertex="1" parent="1">
          <mxGeometry x="358" y="500" width="60" height="80" as="geometry" />
        </mxCell>
        <mxCell id="moitEkJ8zeqbk6gh0u7G-19" value="Block Cache" style="rounded=1;whiteSpace=wrap;html=1;" vertex="1" parent="1">
          <mxGeometry x="952.5" y="271" width="120" height="60" as="geometry" />
        </mxCell>
        <mxCell id="moitEkJ8zeqbk6gh0u7G-20" value="Metadata Cache" style="rounded=1;whiteSpace=wrap;html=1;" vertex="1" parent="1">
          <mxGeometry x="952.5" y="384" width="120" height="60" as="geometry" />
        </mxCell>
        <mxCell id="moitEkJ8zeqbk6gh0u7G-21" value="Cleanup Service" style="rounded=1;whiteSpace=wrap;html=1;" vertex="1" parent="1">
          <mxGeometry x="738" y="520" width="120" height="60" as="geometry" />
        </mxCell>
        <mxCell id="moitEkJ8zeqbk6gh0u7G-22" value="" style="endArrow=classic;html=1;exitX=0.875;exitY=0.5;exitDx=0;exitDy=0;exitPerimeter=0;" edge="1" parent="1" source="moitEkJ8zeqbk6gh0u7G-1" target="moitEkJ8zeqbk6gh0u7G-7">
          <mxGeometry width="50" height="50" relative="1" as="geometry">
            <mxPoint x="240" y="321" as="sourcePoint" />
            <mxPoint x="290" y="271" as="targetPoint" />
          </mxGeometry>
        </mxCell>
        <mxCell id="moitEkJ8zeqbk6gh0u7G-23" value="" style="endArrow=classic;html=1;" edge="1" parent="1" source="moitEkJ8zeqbk6gh0u7G-7">
          <mxGeometry width="50" height="50" relative="1" as="geometry">
            <mxPoint x="399" y="300" as="sourcePoint" />
            <mxPoint x="600" y="298" as="targetPoint" />
          </mxGeometry>
        </mxCell>
        <mxCell id="moitEkJ8zeqbk6gh0u7G-24" value="" style="endArrow=classic;html=1;" edge="1" parent="1">
          <mxGeometry width="50" height="50" relative="1" as="geometry">
            <mxPoint x="648" y="298" as="sourcePoint" />
            <mxPoint x="790" y="298" as="targetPoint" />
          </mxGeometry>
        </mxCell>
      </root>
    </mxGraphModel>
  </diagram>
</mxfile>
